<svg xmlns="http://www.w3.org/2000/svg" xmlns:xlink="http://www.w3.org/1999/xlink" preserveAspectRatio="xMidYMid" width="5" height="11" viewBox="0 0 5 11">
  <defs>
    <style>
      .cls-1 {
        fill: #fff;
        fill-rule: evenodd;
      }
    </style>
  </defs>
  <path d="M0.001,3.638 L1.072,3.638 L1.072,3.122 L1.072,2.616 L1.072,2.532 C1.072,2.045 1.084,1.293 1.417,0.828 C1.768,0.335 2.250,-0.000 3.079,-0.000 C4.430,-0.000 4.999,0.204 4.999,0.204 L4.731,1.889 C4.731,1.889 4.285,1.753 3.869,1.753 C3.452,1.753 3.079,1.910 3.079,2.353 L3.079,2.532 L3.079,3.122 L3.079,3.638 L4.787,3.638 L4.668,5.283 L3.079,5.283 L3.079,11.000 L1.072,11.000 L1.072,5.283 L0.001,5.283 L0.001,3.638 Z" class="cls-1"/>
</svg>
