<svg xmlns="http://www.w3.org/2000/svg" xmlns:xlink="http://www.w3.org/1999/xlink" preserveAspectRatio="xMidYMid" width="12" height="11" viewBox="0 0 12 11">
  <defs>
    <style>
      .cls-1 {
        fill: #fff;
        fill-rule: evenodd;
      }
    </style>
  </defs>
  <path d="M9.968,2.755 L9.968,4.960 L9.460,4.960 L9.460,2.755 L7.428,2.755 L7.428,2.204 L9.460,2.204 L9.460,-0.000 L9.968,-0.000 L9.968,2.204 L11.999,2.204 L11.999,2.755 L9.968,2.755 ZM4.853,0.551 C5.514,0.826 5.866,1.662 5.866,2.518 C5.866,3.239 5.498,3.857 4.979,4.298 C4.472,4.727 4.376,4.907 4.376,5.272 C4.376,5.584 4.919,6.114 5.203,6.332 C6.032,6.968 6.300,7.559 6.300,8.546 C6.300,9.777 5.203,11.000 3.215,11.000 C1.472,11.000 0.000,10.231 0.000,9.000 C0.000,7.751 1.342,6.546 3.086,6.546 C3.276,6.546 3.450,6.540 3.630,6.540 C3.392,6.288 3.203,5.980 3.203,5.599 C3.203,5.373 3.269,5.156 3.362,4.963 C3.267,4.970 3.171,4.972 3.071,4.972 C1.639,4.972 0.680,3.867 0.680,2.497 C0.680,1.157 2.004,-0.000 3.412,-0.000 C4.197,-0.000 6.552,-0.000 6.552,-0.000 L5.849,0.551 L4.853,0.551 ZM3.418,6.863 C2.213,6.848 1.133,7.660 1.133,8.634 C1.133,9.629 2.004,10.456 3.209,10.456 C4.903,10.456 5.493,9.679 5.493,8.685 C5.493,8.565 5.480,8.448 5.455,8.334 C5.323,7.771 4.853,7.492 4.199,6.998 C3.961,6.915 3.699,6.866 3.418,6.863 ZM4.737,2.586 C4.597,1.433 3.828,0.508 3.020,0.482 C2.211,0.456 1.668,1.338 1.808,2.490 C1.948,3.643 2.716,4.599 3.525,4.625 C4.334,4.651 4.876,3.738 4.737,2.586 Z" class="cls-1"/>
</svg>
