<svg xmlns="http://www.w3.org/2000/svg" xmlns:xlink="http://www.w3.org/1999/xlink" preserveAspectRatio="xMidYMid" width="12" height="10" viewBox="0 0 12 10">
  <defs>
    <style>
      .cls-1 {
        fill: #fff;
        fill-rule: evenodd;
      }
    </style>
  </defs>
  <path d="M12.001,1.184 C11.559,1.385 11.084,1.520 10.586,1.581 C11.095,1.269 11.485,0.774 11.669,0.185 C11.193,0.474 10.666,0.684 10.105,0.797 C9.656,0.307 9.016,0.000 8.308,0.000 C6.948,0.000 5.846,1.131 5.846,2.525 C5.846,2.722 5.868,2.915 5.910,3.100 C3.863,2.995 2.049,1.990 0.835,0.462 C0.623,0.835 0.501,1.269 0.501,1.731 C0.501,2.607 0.936,3.380 1.597,3.833 C1.193,3.819 0.814,3.706 0.482,3.517 C0.481,3.527 0.481,3.538 0.481,3.548 C0.481,4.772 1.330,5.792 2.456,6.024 C2.250,6.081 2.032,6.112 1.808,6.112 C1.649,6.112 1.495,6.096 1.345,6.067 C1.658,7.070 2.567,7.800 3.645,7.820 C2.802,8.497 1.740,8.901 0.587,8.901 C0.388,8.901 0.192,8.889 -0.001,8.865 C1.089,9.582 2.383,9.999 3.774,9.999 C8.303,9.999 10.779,6.153 10.779,2.817 C10.779,2.708 10.777,2.599 10.772,2.491 C11.253,2.135 11.671,1.690 12.001,1.184 Z" class="cls-1"/>
</svg>
